<svg xmlns="http://www.w3.org/2000/svg" width="150" height="130" viewBox="0 0 150 130"><path fill="#44aaf4" d="M75.701 86.544L44.576 68.67v-37.5l31.125-17.562 30.875 18.062v36.5z"/><path fill="#fff" d="M82.576 46.608l-7-5.083-16 8.644v-9.894l15.907-9.25 16.093 9.25z"/><path fill="#fff" d="M91.576 60.17l-16 9.437-16-9.438v-7.125l9-4.437v5.562l6.907 4.125 7.093-4.125z"/><path d="M14.022 114.67c-1.47 0-2.828-.276-4.075-.828A10.117 10.117 0 0 1 6.7 111.58c-.918-.957-1.634-2.093-2.146-3.408-.512-1.314-.769-2.735-.769-4.263 0-1.547.256-2.958.77-4.234.511-1.276 1.227-2.363 2.145-3.262a9.664 9.664 0 0 1 3.248-2.088c1.247-.493 2.605-.74 4.075-.74h11.426v3.683H14.022a6.69 6.69 0 0 0-2.625.507 6.2 6.2 0 0 0-2.074 1.407 6.468 6.468 0 0 0-1.363 2.146c-.329.832-.493 1.75-.493 2.755 0 .986.164 1.904.493 2.755a6.551 6.551 0 0 0 1.363 2.19 6.304 6.304 0 0 0 2.074 1.435 6.523 6.523 0 0 0 2.625.522h11.426v3.683H14.022zm20.764-5.859v-3.567h8.468c1.295 0 2.306-.367 3.03-1.102.725-.735 1.088-1.7 1.088-2.9 0-1.218-.363-2.185-1.088-2.9-.725-.715-1.735-1.073-3.03-1.073H32.09v17.4h-3.654V93.586h14.82c1.217 0 2.305.18 3.262.537.957.358 1.764.86 2.421 1.508a6.45 6.45 0 0 1 1.508 2.364c.348.928.522 1.972.522 3.132 0 1.141-.174 2.18-.522 3.118a6.84 6.84 0 0 1-1.508 2.421c-.658.677-1.464 1.204-2.42 1.581-.958.377-2.046.565-3.264.565h-8.468zm28.419 5.859c-1.47 0-2.828-.276-4.075-.828a10.117 10.117 0 0 1-3.248-2.262c-.918-.957-1.634-2.093-2.146-3.408-.512-1.314-.769-2.735-.769-4.263 0-1.547.256-2.958.77-4.234.511-1.276 1.227-2.363 2.145-3.262a9.664 9.664 0 0 1 3.248-2.088c1.247-.493 2.605-.74 4.075-.74h5.133c1.527 0 2.924.251 4.19.754 1.266.503 2.354 1.208 3.262 2.117.91.91 1.615 1.997 2.117 3.262.503 1.267.754 2.664.754 4.191 0 1.527-.256 2.948-.768 4.263-.514 1.315-1.229 2.451-2.146 3.408a10.073 10.073 0 0 1-3.263 2.262c-1.257.551-2.639.827-4.147.827zm5.133-3.684c.967 0 1.856-.174 2.668-.522a6.407 6.407 0 0 0 2.103-1.436 6.421 6.421 0 0 0 1.377-2.189 7.573 7.573 0 0 0 .493-2.755c0-.986-.165-1.899-.493-2.74a6.325 6.325 0 0 0-1.377-2.16 6.338 6.338 0 0 0-2.103-1.408c-.812-.338-1.7-.507-2.668-.507h-5.133a6.69 6.69 0 0 0-2.625.507 6.2 6.2 0 0 0-2.074 1.407 6.468 6.468 0 0 0-1.363 2.146c-.329.832-.493 1.75-.493 2.755 0 .986.164 1.904.493 2.755a6.551 6.551 0 0 0 1.363 2.19 6.304 6.304 0 0 0 2.074 1.435 6.523 6.523 0 0 0 2.625.522zm13.312 3.684V93.585h3.682v17.4h14.182v3.683zm20.502 0V93.585h3.682v17.4h14.182v3.683zm30.131 0c-1.47 0-2.828-.276-4.074-.828a10.106 10.106 0 0 1-3.248-2.262c-.92-.957-1.635-2.093-2.146-3.408-.514-1.314-.77-2.735-.77-4.263 0-1.547.256-2.958.77-4.234.512-1.276 1.227-2.363 2.146-3.262.918-.899 2-1.595 3.248-2.088 1.246-.493 2.604-.74 4.074-.74h5.133c1.527 0 2.924.251 4.19.754 1.267.503 2.353 1.208 3.263 2.117.908.91 1.613 1.997 2.117 3.262.502 1.267.754 2.664.754 4.191 0 1.527-.258 2.948-.77 4.263s-1.227 2.451-2.146 3.408a10.079 10.079 0 0 1-3.262 2.262c-1.256.551-2.639.827-4.146.827zm5.133-3.684c.967 0 1.855-.174 2.668-.522a6.392 6.392 0 0 0 2.102-1.436 6.456 6.456 0 0 0 1.38-2.189 7.594 7.594 0 0 0 .491-2.755c0-.986-.164-1.899-.492-2.74a6.33 6.33 0 0 0-1.379-2.16 6.333 6.333 0 0 0-2.102-1.408c-.813-.338-1.7-.507-2.668-.507h-5.133c-.947 0-1.822.17-2.625.507a6.2 6.2 0 0 0-2.074 1.407 6.484 6.484 0 0 0-1.363 2.146c-.328.832-.492 1.75-.492 2.755 0 .986.164 1.904.492 2.755.33.851.783 1.581 1.363 2.19a6.304 6.304 0 0 0 2.074 1.435c.803.35 1.678.522 2.625.522z" fill="#44aaf4"/></svg>